<svg xmlns="http://www.w3.org/2000/svg" xmlns:xlink="http://www.w3.org/1999/xlink" width="2000" zoomAndPan="magnify" viewBox="0 0 1500 1499.999933" height="2000" preserveAspectRatio="xMidYMid meet" version="1.0"><defs><g/><clipPath id="99c55f836c"><path d="M 175 7.933594 L 1325.398438 7.933594 L 1325.398438 1492.183594 L 175 1492.183594 Z M 175 7.933594 " clip-rule="nonzero"/></clipPath></defs><g clip-path="url(#99c55f836c)"><path fill="#000000" d="M 1202.070312 581.511719 L 1202.070312 459.742188 C 1202.070312 210.664062 999.3125 7.933594 750.1875 7.933594 C 501.066406 7.933594 298.214844 210.613281 298.214844 459.742188 L 298.214844 581.511719 C 229.992188 583.359375 175.175781 638.933594 175.175781 707.59375 L 175.175781 1365.746094 C 175.175781 1367.816406 175.226562 1369.882812 175.328125 1371.949219 C 175.429688 1374.015625 175.582031 1376.078125 175.78125 1378.136719 C 175.984375 1380.195312 176.238281 1382.25 176.542969 1384.296875 C 176.84375 1386.34375 177.199219 1388.382812 177.601562 1390.410156 C 178.007812 1392.441406 178.460938 1394.457031 178.960938 1396.464844 C 179.464844 1398.472656 180.015625 1400.464844 180.617188 1402.445312 C 181.21875 1404.425781 181.867188 1406.390625 182.5625 1408.339844 C 183.261719 1410.285156 184.003906 1412.214844 184.796875 1414.128906 C 185.589844 1416.039062 186.425781 1417.929688 187.3125 1419.800781 C 188.195312 1421.671875 189.125 1423.519531 190.101562 1425.34375 C 191.078125 1427.167969 192.097656 1428.96875 193.160156 1430.742188 C 194.222656 1432.519531 195.332031 1434.265625 196.480469 1435.988281 C 197.628906 1437.707031 198.820312 1439.398438 200.054688 1441.058594 C 201.285156 1442.722656 202.558594 1444.351562 203.871094 1445.953125 C 205.183594 1447.550781 206.535156 1449.117188 207.925781 1450.652344 C 209.3125 1452.183594 210.742188 1453.683594 212.203125 1455.144531 C 213.667969 1456.609375 215.164062 1458.035156 216.699219 1459.425781 C 218.230469 1460.816406 219.796875 1462.164062 221.398438 1463.480469 C 222.996094 1464.792969 224.628906 1466.0625 226.289062 1467.296875 C 227.953125 1468.53125 229.644531 1469.71875 231.363281 1470.871094 C 233.085938 1472.019531 234.832031 1473.125 236.609375 1474.191406 C 238.382812 1475.253906 240.183594 1476.273438 242.007812 1477.25 C 243.832031 1478.226562 245.679688 1479.15625 247.550781 1480.039062 C 249.421875 1480.925781 251.3125 1481.761719 253.226562 1482.554688 C 255.136719 1483.347656 257.066406 1484.089844 259.015625 1484.789062 C 260.964844 1485.484375 262.929688 1486.136719 264.910156 1486.734375 C 266.890625 1487.335938 268.882812 1487.886719 270.890625 1488.390625 C 272.898438 1488.894531 274.917969 1489.347656 276.945312 1489.75 C 278.976562 1490.15625 281.015625 1490.507812 283.0625 1490.8125 C 285.109375 1491.117188 287.160156 1491.371094 289.21875 1491.574219 C 291.28125 1491.777344 293.34375 1491.929688 295.410156 1492.03125 C 297.476562 1492.132812 299.546875 1492.183594 301.613281 1492.183594 L 1198.691406 1492.183594 C 1200.761719 1492.183594 1202.828125 1492.132812 1204.894531 1492.03125 C 1206.964844 1491.929688 1209.027344 1491.777344 1211.085938 1491.574219 C 1213.144531 1491.371094 1215.199219 1491.117188 1217.246094 1490.816406 C 1219.292969 1490.511719 1221.332031 1490.15625 1223.359375 1489.753906 C 1225.390625 1489.351562 1227.410156 1488.898438 1229.417969 1488.394531 C 1231.425781 1487.890625 1233.417969 1487.339844 1235.398438 1486.738281 C 1237.378906 1486.136719 1239.34375 1485.488281 1241.292969 1484.792969 C 1243.242188 1484.097656 1245.171875 1483.351562 1247.082031 1482.558594 C 1248.996094 1481.769531 1250.886719 1480.929688 1252.757812 1480.042969 C 1254.628906 1479.160156 1256.476562 1478.230469 1258.300781 1477.253906 C 1260.125 1476.28125 1261.925781 1475.261719 1263.703125 1474.195312 C 1265.476562 1473.132812 1267.226562 1472.027344 1268.945312 1470.875 C 1270.667969 1469.726562 1272.359375 1468.535156 1274.019531 1467.304688 C 1275.683594 1466.070312 1277.3125 1464.796875 1278.914062 1463.484375 C 1280.511719 1462.171875 1282.078125 1460.824219 1283.613281 1459.433594 C 1285.148438 1458.042969 1286.644531 1456.617188 1288.109375 1455.152344 C 1289.570312 1453.691406 1291 1452.191406 1292.386719 1450.660156 C 1293.777344 1449.125 1295.128906 1447.5625 1296.441406 1445.960938 C 1297.753906 1444.363281 1299.027344 1442.730469 1300.261719 1441.070312 C 1301.496094 1439.40625 1302.6875 1437.714844 1303.835938 1435.996094 C 1304.984375 1434.277344 1306.09375 1432.527344 1307.15625 1430.753906 C 1308.21875 1428.980469 1309.242188 1427.179688 1310.214844 1425.355469 C 1311.191406 1423.53125 1312.121094 1421.683594 1313.007812 1419.8125 C 1313.890625 1417.941406 1314.730469 1416.050781 1315.523438 1414.136719 C 1316.316406 1412.226562 1317.058594 1410.296875 1317.757812 1408.347656 C 1318.453125 1406.402344 1319.101562 1404.4375 1319.703125 1402.457031 C 1320.304688 1400.476562 1320.855469 1398.484375 1321.359375 1396.476562 C 1321.863281 1394.46875 1322.316406 1392.449219 1322.71875 1390.421875 C 1323.125 1388.390625 1323.476562 1386.355469 1323.78125 1384.308594 C 1324.085938 1382.261719 1324.339844 1380.207031 1324.542969 1378.148438 C 1324.746094 1376.089844 1324.898438 1374.027344 1325 1371.960938 C 1325.101562 1369.894531 1325.152344 1367.824219 1325.152344 1365.757812 L 1325.152344 707.59375 C 1325.152344 638.921875 1270.304688 583.339844 1202.070312 581.511719 Z M 853.59375 945.714844 C 853.035156 949.636719 850.839844 958.578125 850.632812 959.261719 C 842.914062 986.007812 824.464844 1007.964844 800.503906 1021.328125 L 841.097656 1194.351562 C 841.390625 1195.242188 841.632812 1196.144531 841.820312 1197.0625 C 842.007812 1197.980469 842.140625 1198.90625 842.21875 1199.839844 C 842.300781 1200.773438 842.324219 1201.707031 842.292969 1202.644531 C 842.265625 1203.578125 842.179688 1204.511719 842.042969 1205.4375 C 841.902344 1206.363281 841.710938 1207.277344 841.46875 1208.183594 C 841.222656 1209.085938 840.925781 1209.972656 840.574219 1210.84375 C 840.226562 1211.710938 839.828125 1212.558594 839.382812 1213.378906 C 838.933594 1214.203125 838.4375 1214.996094 837.898438 1215.761719 C 837.359375 1216.527344 836.777344 1217.257812 836.148438 1217.953125 C 835.523438 1218.652344 834.859375 1219.308594 834.15625 1219.929688 C 833.453125 1220.546875 832.71875 1221.125 831.949219 1221.660156 C 831.179688 1222.191406 830.378906 1222.679688 829.554688 1223.117188 C 828.726562 1223.558594 827.875 1223.949219 827.003906 1224.289062 C 826.132812 1224.632812 825.242188 1224.921875 824.335938 1225.160156 C 823.429688 1225.394531 822.511719 1225.578125 821.585938 1225.710938 C 820.65625 1225.839844 819.726562 1225.914062 818.789062 1225.9375 L 684.285156 1225.9375 C 683.347656 1225.914062 682.414062 1225.839844 681.488281 1225.710938 C 680.558594 1225.578125 679.644531 1225.394531 678.738281 1225.160156 C 677.832031 1224.921875 676.941406 1224.632812 676.070312 1224.292969 C 675.195312 1223.949219 674.347656 1223.558594 673.519531 1223.121094 C 672.691406 1222.679688 671.894531 1222.191406 671.125 1221.660156 C 670.355469 1221.125 669.617188 1220.550781 668.917969 1219.929688 C 668.214844 1219.308594 667.550781 1218.652344 666.925781 1217.957031 C 666.296875 1217.257812 665.714844 1216.527344 665.175781 1215.761719 C 664.636719 1214.996094 664.140625 1214.203125 663.695312 1213.378906 C 663.246094 1212.558594 662.847656 1211.710938 662.5 1210.839844 C 662.152344 1209.972656 661.855469 1209.085938 661.609375 1208.183594 C 661.363281 1207.277344 661.171875 1206.363281 661.035156 1205.4375 C 660.898438 1204.511719 660.8125 1203.578125 660.785156 1202.644531 C 660.753906 1201.707031 660.78125 1200.773438 660.859375 1199.839844 C 660.941406 1198.90625 661.074219 1197.980469 661.261719 1197.0625 C 661.449219 1196.144531 661.691406 1195.242188 661.984375 1194.351562 L 699.824219 1021.328125 C 675.851562 1007.964844 657.402344 986.007812 649.691406 959.261719 C 649.488281 958.578125 647.28125 949.636719 646.722656 945.714844 C 646.011719 940.886719 645.652344 936.03125 645.648438 931.148438 C 645.648438 929.4375 645.691406 927.730469 645.773438 926.019531 C 645.855469 924.3125 645.980469 922.605469 646.148438 920.902344 C 646.316406 919.203125 646.523438 917.503906 646.773438 915.8125 C 647.023438 914.121094 647.316406 912.4375 647.648438 910.757812 C 647.984375 909.082031 648.359375 907.410156 648.773438 905.753906 C 649.1875 904.09375 649.644531 902.445312 650.140625 900.808594 C 650.636719 899.171875 651.171875 897.546875 651.746094 895.9375 C 652.324219 894.324219 652.9375 892.730469 653.59375 891.148438 C 654.246094 889.570312 654.941406 888.003906 655.671875 886.460938 C 656.402344 884.914062 657.171875 883.386719 657.976562 881.875 C 658.78125 880.367188 659.625 878.878906 660.503906 877.414062 C 661.382812 875.945312 662.296875 874.5 663.246094 873.078125 C 664.199219 871.65625 665.183594 870.257812 666.203125 868.882812 C 667.21875 867.507812 668.273438 866.160156 669.355469 864.839844 C 670.441406 863.515625 671.558594 862.21875 672.707031 860.953125 C 673.855469 859.683594 675.035156 858.445312 676.246094 857.238281 C 677.453125 856.027344 678.691406 854.847656 679.960938 853.699219 C 681.226562 852.550781 682.523438 851.433594 683.84375 850.347656 C 685.167969 849.261719 686.515625 848.210938 687.890625 847.191406 C 689.261719 846.171875 690.660156 845.1875 692.082031 844.238281 C 693.503906 843.285156 694.949219 842.371094 696.417969 841.492188 C 697.886719 840.613281 699.371094 839.769531 700.882812 838.960938 C 702.390625 838.15625 703.917969 837.386719 705.464844 836.65625 C 707.011719 835.921875 708.574219 835.230469 710.15625 834.574219 C 711.734375 833.921875 713.332031 833.304688 714.941406 832.730469 C 716.550781 832.152344 718.175781 831.617188 719.8125 831.121094 C 721.449219 830.625 723.097656 830.167969 724.757812 829.75 C 726.417969 829.335938 728.085938 828.960938 729.765625 828.625 C 731.441406 828.292969 733.128906 828 734.820312 827.75 C 736.511719 827.5 738.210938 827.289062 739.910156 827.121094 C 741.613281 826.953125 743.320312 826.828125 745.027344 826.742188 C 746.738281 826.660156 748.449219 826.617188 750.15625 826.617188 C 751.867188 826.617188 753.578125 826.660156 755.289062 826.742188 C 756.996094 826.828125 758.703125 826.953125 760.402344 827.121094 C 762.105469 827.289062 763.804688 827.5 765.496094 827.75 C 767.1875 828 768.875 828.292969 770.550781 828.628906 C 772.230469 828.960938 773.898438 829.335938 775.558594 829.75 C 777.21875 830.167969 778.867188 830.625 780.503906 831.121094 C 782.140625 831.617188 783.765625 832.152344 785.375 832.730469 C 786.984375 833.304688 788.582031 833.921875 790.160156 834.574219 C 791.742188 835.230469 793.304688 835.925781 794.851562 836.65625 C 796.398438 837.386719 797.925781 838.15625 799.433594 838.960938 C 800.941406 839.769531 802.429688 840.613281 803.898438 841.492188 C 805.367188 842.371094 806.8125 843.285156 808.234375 844.238281 C 809.65625 845.1875 811.054688 846.171875 812.425781 847.191406 C 813.800781 848.210938 815.148438 849.261719 816.472656 850.347656 C 817.792969 851.433594 819.089844 852.550781 820.355469 853.699219 C 821.625 854.847656 822.863281 856.027344 824.070312 857.238281 C 825.28125 858.445312 826.460938 859.683594 827.609375 860.953125 C 828.757812 862.21875 829.875 863.515625 830.960938 864.839844 C 832.042969 866.160156 833.097656 867.507812 834.113281 868.882812 C 835.132812 870.257812 836.117188 871.65625 837.066406 873.078125 C 838.019531 874.5 838.933594 875.945312 839.8125 877.414062 C 840.691406 878.878906 841.535156 880.367188 842.339844 881.875 C 843.144531 883.386719 843.914062 884.914062 844.644531 886.460938 C 845.375 888.003906 846.070312 889.570312 846.722656 891.148438 C 847.378906 892.730469 847.992188 894.324219 848.570312 895.9375 C 849.144531 897.546875 849.679688 899.171875 850.175781 900.808594 C 850.671875 902.445312 851.128906 904.09375 851.542969 905.753906 C 851.957031 907.410156 852.332031 909.082031 852.664062 910.757812 C 853 912.4375 853.289062 914.121094 853.542969 915.8125 C 853.792969 917.503906 854 919.203125 854.167969 920.902344 C 854.335938 922.605469 854.460938 924.3125 854.542969 926.019531 C 854.625 927.730469 854.667969 929.4375 854.667969 931.148438 C 854.664062 936.03125 854.304688 940.886719 853.59375 945.714844 Z M 1047.769531 581.164062 L 452.527344 581.164062 L 452.527344 459.742188 C 452.527344 295.625 586.003906 162.136719 750.1875 162.136719 C 914.375 162.136719 1047.769531 295.625 1047.769531 459.742188 Z M 1047.769531 581.164062 " fill-opacity="1" fill-rule="nonzero"/></g><g fill="#ffffff" fill-opacity="1"><g transform="translate(714.012092, 435.960293)"><g><path d="M 8.5625 -41.125 C 7.476562 -41.125 6.597656 -41.460938 5.921875 -42.140625 C 5.242188 -42.816406 4.90625 -43.675781 4.90625 -44.71875 C 4.90625 -45.757812 5.242188 -46.617188 5.921875 -47.296875 C 6.597656 -47.972656 7.476562 -48.3125 8.5625 -48.3125 C 9.644531 -48.3125 10.523438 -47.972656 11.203125 -47.296875 C 11.878906 -46.617188 12.21875 -45.757812 12.21875 -44.71875 C 12.21875 -43.675781 11.878906 -42.816406 11.203125 -42.140625 C 10.523438 -41.460938 9.644531 -41.125 8.5625 -41.125 Z M 1.6875 14.625 C 0.601562 14.625 -0.351562 14.546875 -1.1875 14.390625 C -2.019531 14.234375 -2.820312 14.007812 -3.59375 13.71875 L -2.8125 9.78125 L -2.21875 9.59375 C -1.175781 9.988281 -0.113281 10.1875 0.96875 10.1875 C 2.59375 10.1875 3.835938 9.648438 4.703125 8.578125 C 5.566406 7.503906 6 5.96875 6 3.96875 L 6 -34.46875 L 11.09375 -34.46875 L 11.09375 3.78125 C 11.09375 7.238281 10.269531 9.910156 8.625 11.796875 C 6.976562 13.679688 4.664062 14.625 1.6875 14.625 Z M 1.6875 14.625 "/></g></g></g></svg>