<svg xmlns="http://www.w3.org/2000/svg" xmlns:xlink="http://www.w3.org/1999/xlink" width="2000" zoomAndPan="magnify" viewBox="0 0 1500 1499.999933" height="2000" preserveAspectRatio="xMidYMid meet" version="1.0"><defs><g/><clipPath id="99c55f836c"><path d="M 175 7.933594 L 1325.398438 7.933594 L 1325.398438 1492.183594 L 175 1492.183594 Z M 175 7.933594 " clip-rule="nonzero"/></clipPath></defs><g clip-path="url(#99c55f836c)"><path fill="currentColor" d="M 1202.070312 581.511719 L 1202.070312 459.742188 C 1202.070312 210.664062 999.3125 7.933594 750.1875 7.933594 C 501.066406 7.933594 298.214844 210.613281 298.214844 459.742188 L 298.214844 581.511719 C 229.992188 583.359375 175.175781 638.933594 175.175781 707.59375 L 175.175781 1365.746094 C 175.175781 1367.816406 175.226562 1369.882812 175.328125 1371.949219 C 175.429688 1374.015625 175.582031 1376.078125 175.78125 1378.136719 C 175.984375 1380.195312 176.238281 1382.25 176.542969 1384.296875 C 176.84375 1386.34375 177.199219 1388.382812 177.601562 1390.410156 C 178.007812 1392.441406 178.460938 1394.457031 178.960938 1396.464844 C 179.464844 1398.472656 180.015625 1400.464844 180.617188 1402.445312 C 181.21875 1404.425781 181.867188 1406.390625 182.5625 1408.339844 C 183.261719 1410.285156 184.003906 1412.214844 184.796875 1414.128906 C 185.589844 1416.039062 186.425781 1417.929688 187.3125 1419.800781 C 188.195312 1421.671875 189.125 1423.519531 190.101562 1425.34375 C 191.078125 1427.167969 192.097656 1428.96875 193.160156 1430.742188 C 194.222656 1432.519531 195.332031 1434.265625 196.480469 1435.988281 C 197.628906 1437.707031 198.820312 1439.398438 200.054688 1441.058594 C 201.285156 1442.722656 202.558594 1444.351562 203.871094 1445.953125 C 205.183594 1447.550781 206.535156 1449.117188 207.925781 1450.652344 C 209.3125 1452.183594 210.742188 1453.683594 212.203125 1455.144531 C 213.667969 1456.609375 215.164062 1458.035156 216.699219 1459.425781 C 218.230469 1460.816406 219.796875 1462.164062 221.398438 1463.480469 C 222.996094 1464.792969 224.628906 1466.0625 226.289062 1467.296875 C 227.953125 1468.53125 229.644531 1469.71875 231.363281 1470.871094 C 233.085938 1472.019531 234.832031 1473.125 236.609375 1474.191406 C 238.382812 1475.253906 240.183594 1476.273438 242.007812 1477.25 C 243.832031 1478.226562 245.679688 1479.15625 247.550781 1480.039062 C 249.421875 1480.925781 251.3125 1481.761719 253.226562 1482.554688 C 255.136719 1483.347656 257.066406 1484.089844 259.015625 1484.789062 C 260.964844 1485.484375 262.929688 1486.136719 264.910156 1486.734375 C 266.890625 1487.335938 268.882812 1487.886719 270.890625 1488.390625 C 272.898438 1488.894531 274.917969 1489.347656 276.945312 1489.75 C 278.976562 1490.15625 281.015625 1490.507812 283.0625 1490.8125 C 285.109375 1491.117188 287.160156 1491.371094 289.21875 1491.574219 C 291.28125 1491.777344 293.34375 1491.929688 295.410156 1492.03125 C 297.476562 1492.132812 299.546875 1492.183594 301.613281 1492.183594 L 1198.691406 1492.183594 C 1200.761719 1492.183594 1202.828125 1492.132812 1204.894531 1492.03125 C 1206.964844 1491.929688 1209.027344 1491.777344 1211.085938 1491.574219 C 1213.144531 1491.371094 1215.199219 1491.117188 1217.246094 1490.816406 C 1219.292969 1490.511719 1221.332031 1490.15625 1223.359375 1489.753906 C 1225.390625 1489.351562 1227.410156 1488.898438 1229.417969 1488.394531 C 1231.425781 1487.890625 1233.417969 1487.339844 1235.398438 1486.738281 C 1237.378906 1486.136719 1239.34375 1485.488281 1241.292969 1484.792969 C 1243.242188 1484.097656 1245.171875 1483.351562 1247.082031 1482.558594 C 1248.996094 1481.769531 1250.886719 1480.929688 1252.757812 1480.042969 C 1254.628906 1479.160156 1256.476562 1478.230469 1258.300781 1477.253906 C 1260.125 1476.28125 1261.925781 1475.261719 1263.703125 1474.195312 C 1265.476562 1473.132812 1267.226562 1472.027344 1268.945312 1470.875 C 1270.667969 1469.726562 1272.359375 1468.535156 1274.019531 1467.304688 C 1275.683594 1466.070312 1277.3125 1464.796875 1278.914062 1463.484375 C 1280.511719 1462.171875 1282.078125 1460.824219 1283.613281 1459.433594 C 1285.148438 1458.042969 1286.644531 1456.617188 1288.109375 1455.152344 C 1289.570312 1453.691406 1291 1452.191406 1292.386719 1450.660156 C 1293.777344 1449.125 1295.128906 1447.5625 1296.441406 1445.960938 C 1297.753906 1444.363281 1299.027344 1442.730469 1300.261719 1441.070312 C 1301.496094 1439.40625 1302.6875 1437.714844 1303.835938 1435.996094 C 1304.984375 1434.277344 1306.09375 1432.527344 1307.15625 1430.753906 C 1308.21875 1428.980469 1309.242188 1427.179688 1310.214844 1425.355469 C 1311.191406 1423.53125 1312.121094 1421.683594 1313.007812 1419.8125 C 1313.890625 1417.941406 1314.730469 1416.050781 1315.523438 1414.136719 C 1316.316406 1412.226562 1317.058594 1410.296875 1317.757812 1408.347656 C 1318.453125 1406.402344 1319.101562 1404.4375 1319.703125 1402.457031 C 1320.304688 1400.476562 1320.855469 1398.484375 1321.359375 1396.476562 C 1321.863281 1394.46875 1322.316406 1392.449219 1322.71875 1390.421875 C 1323.125 1388.390625 1323.476562 1386.355469 1323.78125 1384.308594 C 1324.085938 1382.261719 1324.339844 1380.207031 1324.542969 1378.148438 C 1324.746094 1376.089844 1324.898438 1374.027344 1325 1371.960938 C 1325.101562 1369.894531 1325.152344 1367.824219 1325.152344 1365.757812 L 1325.152344 707.59375 C 1325.152344 638.921875 1270.304688 583.339844 1202.070312 581.511719 Z M 1047.769531 581.164062 L 452.527344 581.164062 L 452.527344 459.742188 C 452.527344 295.625 586.003906 162.136719 750.1875 162.136719 C 914.375 162.136719 1047.769531 295.625 1047.769531 459.742188 Z M 1047.769531 581.164062 " fill-opacity="1" fill-rule="nonzero"/></g><g fill="currentColor" fill-opacity="1"><g transform="translate(714.012092, 435.960293)"><g><path d="M 8.5625 -41.125 C 7.476562 -41.125 6.597656 -41.460938 5.921875 -42.140625 C 5.242188 -42.816406 4.90625 -43.675781 4.90625 -44.71875 C 4.90625 -45.757812 5.242188 -46.617188 5.921875 -47.296875 C 6.597656 -47.972656 7.476562 -48.3125 8.5625 -48.3125 C 9.644531 -48.3125 10.523438 -47.972656 11.203125 -47.296875 C 11.878906 -46.617188 12.21875 -45.757812 12.21875 -44.71875 C 12.21875 -43.675781 11.878906 -42.816406 11.203125 -42.140625 C 10.523438 -41.460938 9.644531 -41.125 8.5625 -41.125 Z M 1.6875 14.625 C 0.601562 14.625 -0.351562 14.546875 -1.1875 14.390625 C -2.019531 14.234375 -2.820312 14.007812 -3.59375 13.71875 L -2.8125 9.78125 L -2.21875 9.59375 C -1.175781 9.988281 -0.113281 10.1875 0.96875 10.1875 C 2.59375 10.1875 3.835938 9.648438 4.703125 8.578125 C 5.566406 7.503906 6 5.96875 6 3.96875 L 6 -34.46875 L 11.09375 -34.46875 L 11.09375 3.78125 C 11.09375 7.238281 10.269531 9.910156 8.625 11.796875 C 6.976562 13.679688 4.664062 14.625 1.6875 14.625 Z M 1.6875 14.625 "/></g></g></g></svg>
